{"title":"Doctor Who 2005 9x02 The Witchs Familiar 720p HDTV x264-FoV[rart","uid":12506942,"size":957489975,"categoryP":"video","categoryS":"tv_shows","magnet":"?xt=urn:btih:ca9cdb4f2af31326d18d553782257d4db13e2f24&amp;dn=Doctor+Who+2005+9x02+The+Witchs+Familiar+720p+HDTV+x264-FoV%5Brart&amp;tr=udp%3A%2F%2Ftracker.leechers-paradise.org%3A6969&amp;tr=udp%3A%2F%2Fzer0day.ch%3A1337&amp;tr=udp%3A%2F%2Fopen.demonii.com%3A1337&amp;tr=udp%3A%2F%2Ftracker.coppersurfer.tk%3A6969&amp;tr=udp%3A%2F%2Fexodus.desync.com%3A6969","seeders":3,"leechers":0,"uploader":"extremezone25","files":3,"time":1443465652,"description":"Doctor_Who_2005.9x02.The_Witchs_Familiar.720p_HDTV_x264-FoV[rartv]\r\n\r\n\r\nTHIS TORRENT IS FROM kat.cr/doctor-who-2005-9x02-the-witchs-familiar-720p-hdtv-x264-fov-rartv-t11322432.html\r\n\r\nALL THING AND CREDITS GO TO THAT GUY, JUST UPLOADED CUZ OF KAT COPYRIGHT\r\n\r\nMediainfo :\r\n\r\nVideo\r\nID : 1\r\nFormat : AVC\r\nFormat/Info : Advanced Video Codec\r\nFormat profile :   \r\nFormat settings, CABAC : Yes\r\nFormat settings, ReFrames : 5 frames\r\nCodec ID : V_MPEG4/ISO/AVC\r\nDuration : 47mn 19s\r\nBit rate : 2 260 Kbps\r\nWidth : 1 280 pixels\r\nHeight : 720 pixels\r\nDisplay aspect ratio : 16:9\r\nFrame rate mode : Constant\r\nFrame rate : 25.000 fps\r\nColor space : YUV\r\nChroma subsampling : 4:2:0\r\nBit depth : 8 bits\r\nScan type : Progressive\r\nBits/(Pixel*Frame) : 0.098\r\nStream size : 765 MiB (84%)\r\nWriting library : x264 core 148 r2597 e86f3a1\r\nEncoding settings : cabac=1 / ref=5 / deblock=1:0:0 / analyse=0x3:0x113 / me=umh / subme=8 / psy=1 / psy_rd=1.00:0.00 / mixed_ref=1 / me_range=16 / chroma_me=1 / trellis=1 / 8x8dct=1 / cqm=0 / deadzone=21,11 / fast_pskip=1 / chroma_qp_offset=-2 / threads=18 / lookahead_threads=3 / sliced_threads=0 / nr=0 / decimate=1 / interlaced=0 / bluray_compat=0 / constrained_intra=0 / bframes=3 / b_pyramid=2 / b_adapt=2 / b_bias=0 / direct=3 / weightb=1 / open_gop=0 / weightp=2 / keyint=250 / keyint_min=25 / scenecut=40 / intra_refresh=0 / rc_lookahead=50 / rc=crf / mbtree=1 / crf=18.0 / qcomp=0.60 / qpmin=0 / qpmax=69 / qpstep=4 / ip_ratio=1.40 / aq=1:1.00\r\nLanguage : English\r\nDefault : Yes\r\nForced : No\r\nColor range : Limited\r\nMatrix coefficients : BT.709\r\n\r\nAudio\r\nID : 2\r\nFormat : AC-3\r\nFormat/Info : Audio Coding 3\r\nMode extension : CM (complete main)\r\nFormat settings, Endianness : Big\r\nCodec ID : A_AC3\r\nDuration : 47mn 19s\r\nBit rate mode : Constant\r\nBit rate : 384 Kbps\r\nChannel(s) : 6 channels\r\nChannel positions : Front: L C R, Side: L R, LFE\r\nSampling rate : 48.0 KHz\r\nCompression mode : Lossy\r\nStream size : 130 MiB (14%)\r\nDefault : Yes\r\nForced : No","torrent":{"xt":"urn:btih:ca9cdb4f2af31326d18d553782257d4db13e2f24","amp;dn":"Doctor+Who+2005+9x02+The+Witchs+Familiar+720p+HDTV+x264-FoV%5Brart","amp;tr":["udp%3A%2F%2Ftracker.leechers-paradise.org%3A6969","udp%3A%2F%2Fzer0day.ch%3A1337","udp%3A%2F%2Fopen.demonii.com%3A1337","udp%3A%2F%2Ftracker.coppersurfer.tk%3A6969","udp%3A%2F%2Fexodus.desync.com%3A6969"],"infoHash":"ca9cdb4f2af31326d18d553782257d4db13e2f24","infoHashBuffer":{"type":"Buffer","data":[202,156,219,79,42,243,19,38,209,141,85,55,130,37,125,77,177,62,47,36]},"announce":[],"urlList":[]}}